PathFileType	4	(X/Y/Z)	RBDS09static.trc
DataRate	CameraRate	NumFrames	NumMarkers	Units	OrigDataRate	OrigDataStartFrame	OrigNumFrames
150.000000	150.000000	4	48	mm	150.000000	93	150
Frame#	Time	L.Ankle			L.Ankle.Medial			L.ASIS			L.GTR			L.Heel.Bottom			L.Heel.Lateral			L.Heel.Top			L.HF			L.Iliac.Crest			L.Knee			L.Knee.Medial			L.MT1			L.MT2			L.MT5			L.PSIS			L.Shank.Bottom.Lateral			L.Shank.Bottom.Medial			L.Shank.Top.Lateral			L.Shank.Top.Medial			L.Thigh.Bottom.Lateral			L.Thigh.Bottom.Medial			L.Thigh.Top.Lateral			L.Thigh.Top.Medial			L.TT			R.Ankle			R.Ankle.Medial			R.ASIS			R.GTR			R.Heel.Bottom			R.Heel.Lateral			R.Heel.Top			R.HF			R.Iliac.Crest			R.Knee			R.Knee.Medial			R.MT1			R.MT2			R.MT5			R.PSIS			R.Shank.Bottom.Lateral			R.Shank.Bottom.Medial			R.Shank.Top.Lateral			R.Shank.Top.Medial			R.Thigh.Bottom.Lateral			R.Thigh.Bottom.Medial			R.Thigh.Top.Lateral			R.Thigh.Top.Medial			R.TT			
		X1	Y1	Z1	X2	Y2	Z2	X3	Y3	Z3	X4	Y4	Z4	X5	Y5	Z5	X6	Y6	Z6	X7	Y7	Z7	X8	Y8	Z8	X9	Y9	Z9	X10	Y10	Z10	X11	Y11	Z11	X12	Y12	Z12	X13	Y13	Z13	X14	Y14	Z14	X15	Y15	Z15	X16	Y16	Z16	X17	Y17	Z17	X18	Y18	Z18	X19	Y19	Z19	X20	Y20	Z20	X21	Y21	Z21	X22	Y22	Z22	X23	Y23	Z23	X24	Y24	Z24	X25	Y25	Z25	X26	Y26	Z26	X27	Y27	Z27	X28	Y28	Z28	X29	Y29	Z29	X30	Y30	Z30	X31	Y31	Z31	X32	Y32	Z32	X33	Y33	Z33	X34	Y34	Z34	X35	Y35	Z35	X36	Y36	Z36	X37	Y37	Z37	X38	Y38	Z38	X39	Y39	Z39	X40	Y40	Z40	X41	Y41	Z41	X42	Y42	Z42	X43	Y43	Z43	X44	Y44	Z44	X45	Y45	Z45	X46	Y46	Z46	X47	Y47	Z47	X48	Y48	Z48	

94	0.62	693.4130249023438	98.38212585449219	1047.54736328125	709.8329467773438	109.4763336181641	1133.784423828125	822.90771484375	983.6144409179688	1113.293701171875	746.7916870117188	902.6602172851563	1069.591430664063	627.7759399414063	38.74993896484375	1081.544677734375	664.3425903320313	60.68750762939453	1044.075805664063	635.213134765625	88.459716796875	1084.015380859375	706.9608764648438	459.7991638183594	1051.613891601563	757.9102172851563	1046.746337890625	1080.595825195313	707.9093627929688	523.3847045898438	1058.177978515625	700.4226684570313	507.3854064941406	1187.396484375	837.26708984375	55.08950805664063	1136.1884765625	835.7487182617188	70.02798461914063	1086.117553710938	810.8015747070313	51.43300628662109	1028.018676757813	663.8447875976563	1019.834594726563	1200.66552734375	683.4443359375	193.3340606689453	1037.424438476563	644.1240844726563	188.1443786621094	1073.129638671875	671.0113525390625	272.3538208007813	1031.877319335938	631.6256713867188	267.9281005859375	1067.715942382813	685.0746459960938	642.0838012695313	1056.2109375	638.0645751953125	644.0635375976563	1112.394287109375	690.0070190429688	752.8448486328125	1059.183349609375	649.281005859375	753.9300537109375	1115.673583984375	757.1843872070313	440.4337158203125	1108.148315429688	698.3695068359375	99.49170684814453	1416.479370117188	714.229248046875	115.5271759033203	1328.998901367188	829.5890502929688	980.1245727539063	1347.906127929688	760.2208251953125	898.6430053710938	1394.982543945313	630.5216064453125	38.05785751342773	1376.592041015625	667.384765625	60.45013046264648	1418.116577148438	638.5680541992188	86.49437713623047	1374.302490234375	721.3875732421875	456.6995849609375	1418.630004882813	775.2355346679688	1048.918579101563	1388.680419921875	725.7439575195313	523.94384765625	1412.255249023438	699.6216430664063	503.5727844238281	1282.335571289063	835.2275390625	59.9754524230957	1326.840454101563	843.478271484375	69.23680877685547	1372.666137695313	812.109619140625	49.25106811523438	1436.711303710938	666.7052612304688	1014.763916015625	1276.591064453125	671.7909545898438	185.2293243408203	1417.573974609375	646.7659912109375	188.2133026123047	1372.223999023438	661.4755859375	269.1767578125	1426.011108398438	635.8523559570313	267.8677368164063	1379.40234375	724.88525390625	603.30078125	1422.76318359375	662.1582641601563	601.81982421875	1384.503051757813	721.26513671875	713.8771362304688	1420.973999023438	663.0724487304688	711.9723510742188	1383.1240234375	767.7059326171875	437.49951171875	1361.513305664063	
95	0.6266666666666667	693.425048828125	98.38630676269531	1047.55126953125	709.8480224609375	109.4712219238281	1133.795776367188	822.898681640625	983.6270751953125	1113.291381835938	746.7791137695313	902.6580810546875	1069.582397460938	627.7706909179688	38.74999618530273	1081.537719726563	664.3386840820313	60.68244171142578	1044.069946289063	635.2085571289063	88.46500396728516	1084.00927734375	706.9698486328125	459.7982788085938	1051.614013671875	757.8972778320313	1046.752319335938	1080.587158203125	707.9091796875	523.3816528320313	1058.173706054688	700.4210205078125	507.3906555175781	1187.397338867188	837.2615966796875	55.08882522583008	1136.1826171875	835.7587280273438	70.015380859375	1086.118896484375	810.7969360351563	51.43003845214844	1028.01806640625	663.8302612304688	1019.841369628906	1200.65478515625	683.4481811523438	193.3314361572266	1037.420776367188	644.1204833984375	188.1558532714844	1073.124145507813	670.9964599609375	272.3496398925781	1031.87841796875	631.6320190429688	267.9291687011719	1067.703491210938	685.0748901367188	642.0887451171875	1056.203247070313	638.0657348632813	644.0578002929688	1112.387817382813	690.0067749023438	752.8433227539063	1059.173095703125	649.2738647460938	753.9290771484375	1115.663452148438	757.1807861328125	440.4364013671875	1108.155395507813	698.380615234375	99.49755096435547	1416.479736328125	714.22314453125	115.5195541381836	1328.991943359375	829.5813598632813	980.1181030273438	1347.901245117188	760.2169799804688	898.6438598632813	1394.978759765625	630.5078125	38.05497741699219	1376.585571289063	667.38623046875	60.45112228393555	1418.113891601563	638.5662231445313	86.48602294921875	1374.305419921875	721.3909301757813	456.7135314941406	1418.619018554688	775.2265014648438	1048.86279296875	1388.709838867188	725.744873046875	523.9341430664063	1412.23779296875	699.6187744140625	503.5579528808594	1282.328735351563	835.232177734375	59.96866226196289	1326.83984375	843.4835815429688	69.2364501953125	1372.6650390625	812.1115112304688	49.25087356567383	1436.7109375	666.6901245117188	1014.768676757813	1276.580444335938	671.793701171875	185.2244110107422	1417.571899414063	646.7607421875	188.2066192626953	1372.224609375	661.4737548828125	269.175048828125	1426.014770507813	635.8554077148438	267.8624572753906	1379.40087890625	724.8907470703125	603.306640625	1422.7666015625	662.15625	601.8193969726563	1384.50439453125	721.2576293945313	713.8820190429688	1420.961669921875	663.0650024414063	711.9688720703125	1383.118896484375	767.7003173828125	437.5001220703125	1361.493286132813	
96	0.6333333333333334	693.4262084960938	98.38653564453125	1047.544067382813	709.8451538085938	109.4749374389648	1133.780517578125	822.8721923828125	983.629638671875	1113.276611328125	746.7669677734375	902.6534423828125	1069.576171875	627.7794189453125	38.74650955200195	1081.546142578125	664.3433837890625	60.68287658691406	1044.081787109375	635.2084350585938	88.46947479248047	1084.005737304688	706.9591674804688	459.7961120605469	1051.604614257813	757.8873291015625	1046.758666992188	1080.570922851563	707.9113159179688	523.3735961914063	1058.175048828125	700.4158935546875	507.3825378417969	1187.400146484375	837.2755737304688	55.07875442504883	1136.170776367188	835.7610473632813	70.02162170410156	1086.118530273438	810.8114624023438	51.43435668945313	1028.02685546875	663.8138427734375	1019.836364746094	1200.65234375	683.44140625	193.3379058837891	1037.419189453125	644.1241455078125	188.1506958007813	1073.133056640625	671.0097045898438	272.3555297851563	1031.876831054688	631.628662109375	267.9249572753906	1067.7109375	685.07373046875	642.0889892578125	1056.187255859375	638.068359375	644.0546264648438	1112.382446289063	689.9957885742188	752.84423828125	1059.165771484375	649.2705688476563	753.9227294921875	1115.661743164063	757.184814453125	440.4351196289063	1108.154296875	698.3713989257813	99.49385070800781	1416.479248046875	714.2342529296875	115.5240097045898	1328.999755859375	829.566650390625	980.1254272460938	1347.89013671875	760.209228515625	898.6450805664063	1394.965209960938	630.5128173828125	38.05258178710938	1376.5869140625	667.3824462890625	60.4460334777832	1418.111572265625	638.564208984375	86.49758148193359	1374.2998046875	721.3859252929688	456.7042541503906	1418.616577148438	775.2216796875	1048.91015625	1388.67626953125	725.7593383789063	523.9319458007813	1412.23388671875	699.6080322265625	503.5656433105469	1282.322998046875	835.2305297851563	59.97708511352539	1326.840698242188	843.4837036132813	69.23680877685547	1372.661254882813	812.1187133789063	49.25186920166016	1436.706909179688	666.6754760742188	1014.767333984375	1276.565307617188	671.7954711914063	185.2226715087891	1417.574462890625	646.757568359375	188.2189178466797	1372.218505859375	661.4730224609375	269.1738891601563	1426.013061523438	635.850341796875	267.8666687011719	1379.397094726563	724.8889770507813	603.310791015625	1422.759765625	662.1458129882813	601.8169555664063	1384.493408203125	721.2547607421875	713.8820190429688	1420.95947265625	663.0548095703125	711.9633178710938	1383.127319335938	767.6906127929688	437.5074462890625	1361.497924804688	
97	0.64	693.4186401367188	98.37360382080078	1047.553955078125	709.8505859375	109.4753646850586	1133.799560546875	822.8578491210938	983.6343994140625	1113.277587890625	746.7630615234375	902.6661376953125	1069.575439453125	627.778564453125	38.755859375	1081.543579101563	664.349365234375	60.68453979492188	1044.087890625	635.205322265625	88.47232055664063	1084.003295898438	706.9603881835938	459.7999572753906	1051.605590820313	757.8630981445313	1046.7724609375	1080.56640625	707.9144897460938	523.3677368164063	1058.167846679688	700.4231567382813	507.3862915039063	1187.383911132813	837.2738037109375	55.07530212402344	1136.177001953125	835.7683715820313	70.01691436767578	1086.131225585938	810.8059692382813	51.42731094360352	1028.023803710938	663.7913208007813	1019.835632324219	1200.643798828125	683.4400634765625	193.3340301513672	1037.419799804688	644.123779296875	188.1507720947266	1073.132080078125	671.0054931640625	272.3548278808594	1031.86767578125	631.6268920898438	267.9252624511719	1067.7109375	685.0645751953125	642.0953979492188	1056.1826171875	638.0667114257813	644.05517578125	1112.376953125	689.9869995117188	752.8405151367188	1059.15966796875	649.2626953125	753.9271240234375	1115.646606445313	757.1830444335938	440.4420166015625	1108.149536132813	698.3751831054688	99.499755859375	1416.477783203125	714.2276000976563	115.5228805541992	1328.987060546875	829.552734375	980.1287231445313	1347.873291015625	760.2000122070313	898.650146484375	1394.955200195313	630.510986328125	38.05906295776367	1376.591186523438	667.3883666992188	60.45676040649414	1418.112670898438	638.5704345703125	86.49675750732422	1374.299926757813	721.3909301757813	456.7098083496094	1418.619750976563	775.2176513671875	1048.909790039063	1388.66552734375	725.748046875	523.9298095703125	1412.218139648438	699.6137084960938	503.56201171875	1282.319580078125	835.2283935546875	59.97175598144531	1326.828369140625	843.4844970703125	69.23671722412109	1372.670654296875	812.11767578125	49.24983978271484	1436.70458984375	666.6578369140625	1014.765197753906	1276.565551757813	671.7965698242188	185.2223052978516	1417.573120117188	646.762939453125	188.2156677246094	1372.212280273438	661.478271484375	269.1753540039063	1426.006713867188	635.8541870117188	267.8636169433594	1379.39404296875	724.8892822265625	603.310791015625	1422.750854492188	662.1423950195313	601.8106689453125	1384.4912109375	721.2493286132813	713.8787231445313	1420.9462890625	663.04248046875	711.9600830078125	1383.13232421875	767.702880859375	437.5058288574219	1361.485229492188	
